<svg xmlns="http://www.w3.org/2000/svg" xmlns:xlink="http://www.w3.org/1999/xlink" version="1.1" viewBox="0 0 1940 1237" style="background: #ffffff"><style id="v-3" type="text/css">
        .joint-element .scalable * {
            vector-effect: non-scaling-stroke;
        }
    </style><defs joint-selector="defs"><marker id="v-21252848929" orient="auto" overflow="visible" markerUnits="userSpaceOnUse"><path id="v-41" stroke="#444444" fill="#444444" transform="rotate(180)" d="M 20 -10 0 0 20 10 Z"></path></marker></defs><g  joint-selector="layers" transform="matrix(1,0,0,1,0,0)"><g style="pointer-events: none;" ></g><g ></g><g  style="user-select: none;"><!--z-index:-2--><!--z-index:-1--><!--z-index:0--><!--z-index:1--><!--z-index:2--><!--z-index:3--><!--z-index:4--><!--z-index:5--><g   id="j_614"  transform="translate(199,159)" style=""><g  id="v-5476" style="opacity: 1;"><rect  id="v-5477" width="1540" height="837" rx="10" ry="10" stroke-width="2" pointer-events="none" stroke="#444444" stroke-dasharray="" fill="#ffffff" opacity="1"></rect><text  id="v-5478" font-size="33.599999999999994px" xml:space="preserve" y="798" font-weight="bold" text-anchor="start" pointer-events="visible" font-family="Tahoma, Verdana, Helvetica, Arial" fill="#444444" transform="matrix(1,0,0,1,15,0)"><tspan  dy="0">Servidor de Aplicaciones</tspan></text><text  id="v-5479" font-size="16.799999999999997px" xml:space="preserve" y="822" font-weight="normal" text-anchor="start" pointer-events="visible" font-family="Tahoma, Verdana, Helvetica, Arial" fill="#444444" transform="matrix(1,0,0,1,15,0)" style="display: block;"><tspan  dy="0">[Deployment Node: Ubuntu Server]</tspan></text><text  id="v-5480" font-size="40px" xml:space="preserve" display="none" y="822" font-weight="normal" fill="#444444" text-anchor="end" pointer-events="visible" font-family="Tahoma, Verdana, Helvetica, Arial" transform="matrix(1,0,0,1,1525,0)"><tspan style="fill-opacity: 0; stroke-opacity: 0;"  dy="0">-</tspan></text><image  id="v-5481" pointer-events="visible"></image></g></g><!--z-index:6--><g   id="j_615"  transform="translate(249,209)" style=""><g  id="v-5482" style="opacity: 1;"><rect  id="v-5483" width="1440" height="658" rx="10" ry="10" stroke-width="2" pointer-events="none" stroke="#444444" stroke-dasharray="" fill="#ffffff" opacity="1"></rect><text  id="v-5484" font-size="33.599999999999994px" xml:space="preserve" y="619" font-weight="bold" text-anchor="start" pointer-events="visible" font-family="Tahoma, Verdana, Helvetica, Arial" fill="#444444" transform="matrix(1,0,0,1,15,0)"><tspan  dy="0">Docker Engine</tspan></text><text  id="v-5485" font-size="16.799999999999997px" xml:space="preserve" y="643" font-weight="normal" text-anchor="start" pointer-events="visible" font-family="Tahoma, Verdana, Helvetica, Arial" fill="#444444" transform="matrix(1,0,0,1,15,0)" style="display: block;"><tspan  dy="0">[Deployment Node: Docker]</tspan></text><text  id="v-5486" font-size="40px" xml:space="preserve" display="none" y="643" font-weight="normal" fill="#444444" text-anchor="end" pointer-events="visible" font-family="Tahoma, Verdana, Helvetica, Arial" transform="matrix(1,0,0,1,1425,0)"><tspan style="fill-opacity: 0; stroke-opacity: 0;"  dy="0">-</tspan></text><image  id="v-5487" pointer-events="visible"></image></g></g><!--z-index:7--><g   id="j_612"  transform="translate(299,309)" style=""><g  id="v-5458" style="opacity: 1;"><rect  id="v-5459" rx="1" ry="1" stroke-width="2" pointer-events="visiblePainted" fill="#2496ed" stroke="#2087d5" stroke-dasharray="" width="450" height="300"></rect><text  id="v-5460" font-size="33.599999999999994px" xml:space="preserve" y="101.30000000000001" font-weight="bold" text-anchor="middle" pointer-events="visible" font-family="Tahoma, Verdana, Helvetica, Arial" fill="#ffffff" dominant-baseline="hanging" transform="matrix(1,0,0,1,225,0)"><tspan  dy="0">Backend API</tspan></text><text  id="v-5461" font-size="16.799999999999997px" xml:space="preserve" y="142.9" text-anchor="middle" font-family="Tahoma, Verdana, Helvetica, Arial" fill="#ffffff" dominant-baseline="hanging" transform="matrix(1,0,0,1,225,0)" style="display: block;"><tspan  dy="0">[Container: Node.js, Sequelize]</tspan></text><text  id="v-5462" font-size="24px" xml:space="preserve" y="174.7" text-anchor="middle" font-family="Tahoma, Verdana, Helvetica, Arial" fill="#ffffff" dominant-baseline="hanging" transform="matrix(1,0,0,1,225,0)" style="display: block;"><tspan  dy="0">API REST con Express.js</tspan></text><g  id="v-5463" color="#ffffff" transform="matrix(1,0,0,1,210,268)" display="none"><g  transform="translate(5 0)"><svg xmlns="http://www.w3.org/2000/svg" width="20" height="20" fill="currentColor" viewBox="0 0 16 16"><path fill-rule="evenodd" d="M6.5 12a5.5 5.5 0 1 0 0-11 5.5 5.5 0 0 0 0 11zM13 6.5a6.5 6.5 0 1 1-13 0 6.5 6.5 0 0 1 13 0z"></path><path d="M10.344 11.742c.03.04.062.078.098.115l3.85 3.85a1 1 0 0 0 1.415-1.414l-3.85-3.85a1.007 1.007 0 0 0-.115-.1 6.538 6.538 0 0 1-1.398 1.4z"></path><path fill-rule="evenodd" d="M6.5 3a.5.5 0 0 1 .5.5V6h2.5a.5.5 0 0 1 0 1H7v2.5a.5.5 0 0 1-1 0V7H3.5a.5.5 0 0 1 0-1H6V3.5a.5.5 0 0 1 .5-.5z"></path></svg></g><g ></g><g ></g><g ></g></g><image  id="v-5464"></image></g></g><!--z-index:8--><g   id="j_616"  transform="translate(1089,259)" style=""><g  id="v-5488" style="opacity: 1;"><rect  id="v-5489" width="550" height="479" rx="10" ry="10" stroke-width="2" pointer-events="none" stroke="#444444" stroke-dasharray="" fill="#ffffff" opacity="1"></rect><text  id="v-5490" font-size="33.599999999999994px" xml:space="preserve" y="440" font-weight="bold" text-anchor="start" pointer-events="visible" font-family="Tahoma, Verdana, Helvetica, Arial" fill="#444444" transform="matrix(1,0,0,1,15,0)"><tspan  dy="0">Docker-BDD</tspan></text><text  id="v-5491" font-size="16.799999999999997px" xml:space="preserve" y="464" font-weight="normal" text-anchor="start" pointer-events="visible" font-family="Tahoma, Verdana, Helvetica, Arial" fill="#444444" transform="matrix(1,0,0,1,15,0)" style="display: block;"><tspan  dy="0">[Deployment Node: Docker Network]</tspan></text><text  id="v-5492" font-size="40px" xml:space="preserve" display="none" y="464" font-weight="normal" fill="#444444" text-anchor="end" pointer-events="visible" font-family="Tahoma, Verdana, Helvetica, Arial" transform="matrix(1,0,0,1,535,0)"><tspan style="fill-opacity: 0; stroke-opacity: 0;"  dy="0">-</tspan></text><image  id="v-5493" pointer-events="visible"></image></g></g><!--z-index:9--><g   id="j_613"  transform="translate(1139,309)" style=""><g  id="v-5468" style="opacity: 1;"><path  d="M 0,30 a 225,30 0,0,0 450 0 a 225,30 0,0,0 -450 0 l 0,240 a 225,30 0,0,0 450 0 l 0,-240" id="v-5469" stroke-width="2" pointer-events="visiblePainted" fill="#2496ed" stroke="#2087d5" stroke-dasharray=""></path><rect  id="v-5470" stroke-width="0" pointer-events="visiblePainted" fill="none" stroke="none" width="450" height="270" x="0" y="30"></rect><text  id="v-5471" font-size="33.599999999999994px" xml:space="preserve" y="116.30000000000001" font-weight="bold" text-anchor="middle" pointer-events="visible" font-family="Tahoma, Verdana, Helvetica, Arial" fill="#ffffff" dominant-baseline="hanging" transform="matrix(1,0,0,1,225,0)"><tspan  dy="0">Base de Datos</tspan></text><text  id="v-5472" font-size="16.799999999999997px" xml:space="preserve" y="157.9" text-anchor="middle" font-family="Tahoma, Verdana, Helvetica, Arial" fill="#ffffff" dominant-baseline="hanging" transform="matrix(1,0,0,1,225,0)" style="display: block;"><tspan  dy="0">[Container: PostgreSQL 16]</tspan></text><text  id="v-5473" font-size="24px" xml:space="preserve" y="189.7" text-anchor="middle" font-family="Tahoma, Verdana, Helvetica, Arial" fill="#ffffff" dominant-baseline="hanging" transform="matrix(1,0,0,1,225,0)" style="display: block;"><tspan  dy="0">Almacenamiento relacional</tspan></text><g  id="v-5474" font-weight="normal" text-anchor="middle" color="#ffffff" transform="matrix(1,0,0,1,222.5,268)" display="none"><g ></g><g ></g><g ></g><g ></g></g><image  id="v-5475"></image></g></g><!--z-index:10--><g   id="j_611"  transform="translate(20,1193)"><g id="v-5450"><text  id="v-5451" font-size="24px" xml:space="preserve" y="0.8em" font-weight="normal" text-anchor="start" fill="#444444" pointer-events="none" display="block" font-family="Tahoma, Verdana, Helvetica, Arial"><tspan  dy="0">jueves, 5 de febrero de 2026, 21:41 hora estándar de Colombia</tspan></text></g></g><!--z-index:11--><g   id="j_610"  transform="translate(20,1147)"><g id="v-5448"><text  id="v-5449" font-size="36px" xml:space="preserve" y="0.8em" font-weight="normal" text-anchor="start" fill="#444444" pointer-events="none" display="block" font-family="Tahoma, Verdana, Helvetica, Arial"><tspan  dy="0">Deployment View: GastanGO - Production</tspan></text></g></g><!--z-index:12--><g   id="j_617"  style="opacity: 1;"><path fill="none" cursor="pointer" stroke="transparent" stroke-linecap="round" joint-selector="wrapper" id="v-5505" stroke-width="10" stroke-linejoin="round" d="M 749 459 L 1139 459"></path><path fill="none" pointer-events="none" joint-selector="line" id="v-5504" stroke="#444444" stroke-width="2" stroke-linejoin="round" stroke-dasharray="8 8" d="M 749 459 L 1139 459" marker-end="url(#v-21252848929)"></path><g id="v-5497" ><g id="v-5498"  label-idx="0" cursor="move" transform="matrix(1,0,0,1,919,459)" style="cursor: default;"><rect joint-selector="rect" id="v-5501" fill="#ffffff" rx="3" ry="3" x="-60.845115661621094" y="-30.57891082763672" width="121.69022369384766" height="57.57404327392578" pointer-events="none"  style="display: block;"></rect><text joint-selector="text" id="v-5500" font-size="24px" xml:space="preserve" fill="#444444" text-anchor="middle" pointer-events="none" font-family="Tahoma, Verdana, Helvetica, Arial" font-weight="normal"  style="display: block;"><tspan  dy="-0.3em">Lee/Escribe</tspan><tspan dy="1.2em" x="0" >[SQL/TCP]</tspan></text></g><g id="v-5499"  label-idx="1" cursor="move" transform="matrix(1,0,0,1,909,485.3999938964844)" style="cursor: default;"><rect joint-selector="rect" id="v-5503" fill="#ffffff" rx="3" ry="3" x="0" y="0" width="0" height="0"  display="none"></rect><text joint-selector="text" id="v-5502" fill="#000000" font-size="14" text-anchor="middle" text-vertical-anchor="middle" pointer-events="none"></text></g></g></g><!--z-index:13--><!--z-index:14--><!--z-index:15--><!--z-index:16--><!--z-index:17--><!--z-index:18--><!--z-index:19--><!--z-index:20--><!--z-index:21--><!--z-index:22--><!--z-index:23--><!--z-index:24--><!--z-index:25--><!--z-index:26--><!--z-index:27--><!--z-index:28--><!--z-index:29--><!--z-index:30--><!--z-index:31--><!--z-index:32--><!--z-index:33--><!--z-index:34--><!--z-index:35--><!--z-index:36--><!--z-index:37--><!--z-index:38--><!--z-index:39--><!--z-index:40--><!--z-index:41--><!--z-index:42--><!--z-index:43--><!--z-index:44--><!--z-index:45--><!--z-index:46--><!--z-index:47--><!--z-index:48--><!--z-index:49--><!--z-index:50--><!--z-index:51--><!--z-index:52--><!--z-index:53--><!--z-index:54--><!--z-index:55--><!--z-index:56--><!--z-index:57--><!--z-index:58--><!--z-index:59--><!--z-index:60--><!--z-index:61--><!--z-index:62--><!--z-index:63--><!--z-index:64--><!--z-index:65--><!--z-index:66--><!--z-index:67--><!--z-index:68--><!--z-index:69--><!--z-index:70--><!--z-index:71--><!--z-index:72--><!--z-index:73--><!--z-index:74--><!--z-index:75--><!--z-index:76--><!--z-index:77--><!--z-index:78--></g><g  style="user-select: none;"></g><g ></g><g  display="none"></g></g></svg>