<svg xmlns="http://www.w3.org/2000/svg" xmlns:xlink="http://www.w3.org/1999/xlink" version="1.1" viewBox="0 0 3270 1229" style="background: #ffffff"><style id="v-3" type="text/css">
        .joint-element .scalable * {
            vector-effect: non-scaling-stroke;
        }
    </style><defs joint-selector="defs"><marker id="v-21252848929" orient="auto" overflow="visible" markerUnits="userSpaceOnUse"><path id="v-41" stroke="#444444" fill="#444444" transform="rotate(180)" d="M 20 -10 0 0 20 10 Z"></path></marker></defs><g  joint-selector="layers" transform="matrix(1,0,0,1,0,0)"><g style="pointer-events: none;" ></g><g ></g><g  style="user-select: none;"><!--z-index:-2--><!--z-index:-1--><!--z-index:0--><!--z-index:1--><!--z-index:2--><!--z-index:3--><!--z-index:4--><!--z-index:5--><!--z-index:6--><!--z-index:7--><!--z-index:8--><!--z-index:9--><!--z-index:10--><!--z-index:11--><!--z-index:12--><!--z-index:13--><g   id="j_512"  transform="translate(20,1185)"><g id="v-4549"><text  id="v-4550" font-size="24px" xml:space="preserve" y="0.8em" font-weight="normal" text-anchor="start" fill="#444444" pointer-events="none" display="block" font-family="Tahoma, Verdana, Helvetica, Arial"><tspan  dy="0">jueves, 5 de febrero de 2026, 21:41 hora estándar de Colombia</tspan></text></g></g><!--z-index:14--><g   id="j_511"  transform="translate(20,1139)"><g id="v-4547"><text  id="v-4548" font-size="36px" xml:space="preserve" y="0.8em" font-weight="normal" text-anchor="start" fill="#444444" pointer-events="none" display="block" font-family="Tahoma, Verdana, Helvetica, Arial"><tspan  dy="0">Container View: GastanGO</tspan></text></g></g><!--z-index:15--><g   id="j_513"  transform="translate(200,335)" style=""><g  id="v-4554" style="opacity: 1;"><rect  x="0" y="160" width="400" height="240" rx="70" id="v-4556" stroke-width="2" pointer-events="visiblePainted" fill="#08427b" stroke="#073b6f" stroke-dasharray=""></rect><circle  cx="200" cy="88.88888888888889" r="88.88888888888889" id="v-4555" stroke-width="2" pointer-events="visiblePainted" fill="#08427b" stroke="#073b6f" stroke-dasharray=""></circle><line  x1="80" y1="266.6666666666667" x2="80" y2="400" id="v-4562" stroke="#073b6f" stroke-width="1" stroke-dasharray=""></line><line  x1="320" y1="266.6666666666667" x2="320" y2="400" id="v-4563" stroke="#073b6f" stroke-width="1" stroke-dasharray=""></line><text  id="v-4557" font-size="33.599999999999994px" xml:space="preserve" y="216.9" font-weight="bold" text-anchor="middle" pointer-events="visible" font-family="Tahoma, Verdana, Helvetica, Arial" fill="#ffffff" dominant-baseline="hanging" transform="matrix(1,0,0,1,200,0)"><tspan  dy="0">Usuario Final</tspan></text><text  id="v-4558" font-size="16.799999999999997px" xml:space="preserve" y="258.5" text-anchor="middle" font-family="Tahoma, Verdana, Helvetica, Arial" fill="#ffffff" dominant-baseline="hanging" transform="matrix(1,0,0,1,200,0)" style="display: block;"><tspan  dy="0">[Person]</tspan></text><text  id="v-4559" font-size="24px" xml:space="preserve" y="290.3" text-anchor="middle" font-family="Tahoma, Verdana, Helvetica, Arial" fill="#ffffff" dominant-baseline="hanging" transform="matrix(1,0,0,1,200,0)" style="display: block;"><tspan  dy="0">Usuario que gestiona sus</tspan><tspan dy="1.2em" x="0" >finanzas personales</tspan></text><g  id="v-4560" font-weight="normal" text-anchor="middle" color="#ffffff" transform="matrix(1,0,0,1,197.5,368)" display="none"><g ></g><g ></g><g ></g><g ></g></g><image  id="v-4561"></image></g></g><!--z-index:16--><g   id="j_515"  transform="translate(940,160)" style="; opacity: 1;"><g id="v-4577"><rect  id="v-4578" width="2130" height="829" rx="0" ry="0" stroke-width="2" pointer-events="none" stroke="#0f5eaa" fill="#ffffff" opacity="1" stroke-dasharray=""></rect><text  id="v-4579" font-size="33.599999999999994px" xml:space="preserve" y="790" font-weight="bold" text-anchor="start" pointer-events="visible" font-family="Tahoma, Verdana, Helvetica, Arial" fill="#0f5eaa" transform="matrix(1,0,0,1,15,0)"><tspan  dy="0">GastanGO</tspan></text><text  id="v-4580" font-size="16.799999999999997px" xml:space="preserve" y="814" font-weight="normal" text-anchor="start" pointer-events="visible" font-family="Tahoma, Verdana, Helvetica, Arial" fill="#0f5eaa" transform="matrix(1,0,0,1,15,0)"><tspan  dy="0">[Software System]</tspan></text><image  id="v-4581" pointer-events="visible"></image></g></g><!--z-index:17--><g   id="j_514"  transform="translate(990,210)" style=""><g  id="v-4570" style="opacity: 1;"><rect  id="v-4571" rx="1" ry="1" stroke-width="2" pointer-events="visiblePainted" fill="#438dd5" stroke="#3c7fc0" stroke-dasharray="" width="450" height="300"></rect><text  id="v-4572" font-size="33.599999999999994px" xml:space="preserve" y="101.30000000000001" font-weight="bold" text-anchor="middle" pointer-events="visible" font-family="Tahoma, Verdana, Helvetica, Arial" fill="#ffffff" dominant-baseline="hanging" transform="matrix(1,0,0,1,225,0)"><tspan  dy="0">Frontend Web</tspan></text><text  id="v-4573" font-size="16.799999999999997px" xml:space="preserve" y="142.9" text-anchor="middle" font-family="Tahoma, Verdana, Helvetica, Arial" fill="#ffffff" dominant-baseline="hanging" transform="matrix(1,0,0,1,225,0)" style="display: block;"><tspan  dy="0">[Container: React, Tailwind CSS]</tspan></text><text  id="v-4574" font-size="24px" xml:space="preserve" y="174.7" text-anchor="middle" font-family="Tahoma, Verdana, Helvetica, Arial" fill="#ffffff" dominant-baseline="hanging" transform="matrix(1,0,0,1,225,0)" style="display: block;"><tspan  dy="0">Aplicación React + Vite</tspan></text><g  id="v-4575" color="#ffffff" transform="matrix(1,0,0,1,210,268)" display="none"><g  transform="translate(5 0)"><svg xmlns="http://www.w3.org/2000/svg" width="20" height="20" fill="currentColor" viewBox="0 0 16 16"><path fill-rule="evenodd" d="M6.5 12a5.5 5.5 0 1 0 0-11 5.5 5.5 0 0 0 0 11zM13 6.5a6.5 6.5 0 1 1-13 0 6.5 6.5 0 0 1 13 0z"></path><path d="M10.344 11.742c.03.04.062.078.098.115l3.85 3.85a1 1 0 0 0 1.415-1.414l-3.85-3.85a1.007 1.007 0 0 0-.115-.1 6.538 6.538 0 0 1-1.398 1.4z"></path><path fill-rule="evenodd" d="M6.5 3a.5.5 0 0 1 .5.5V6h2.5a.5.5 0 0 1 0 1H7v2.5a.5.5 0 0 1-1 0V7H3.5a.5.5 0 0 1 0-1H6V3.5a.5.5 0 0 1 .5-.5z"></path></svg></g><g ></g><g ></g><g ></g></g><image  id="v-4576"></image></g></g><!--z-index:18--><g   id="j_516"  transform="translate(990,560)" style=""><g  id="v-4588" style="opacity: 1;"><rect  id="v-4589" rx="1" ry="1" stroke-width="2" pointer-events="visiblePainted" fill="#438dd5" stroke="#3c7fc0" stroke-dasharray="" width="450" height="300"></rect><text  id="v-4590" font-size="33.599999999999994px" xml:space="preserve" y="101.30000000000001" font-weight="bold" text-anchor="middle" pointer-events="visible" font-family="Tahoma, Verdana, Helvetica, Arial" fill="#ffffff" dominant-baseline="hanging" transform="matrix(1,0,0,1,225,0)"><tspan  dy="0">Frontend Mobile</tspan></text><text  id="v-4591" font-size="16.799999999999997px" xml:space="preserve" y="142.9" text-anchor="middle" font-family="Tahoma, Verdana, Helvetica, Arial" fill="#ffffff" dominant-baseline="hanging" transform="matrix(1,0,0,1,225,0)" style="display: block;"><tspan  dy="0">[Container: React Native, TypeScript]</tspan></text><text  id="v-4592" font-size="24px" xml:space="preserve" y="174.7" text-anchor="middle" font-family="Tahoma, Verdana, Helvetica, Arial" fill="#ffffff" dominant-baseline="hanging" transform="matrix(1,0,0,1,225,0)" style="display: block;"><tspan  dy="0">Aplicación React Native + Expo</tspan></text><g  id="v-4593" color="#ffffff" transform="matrix(1,0,0,1,222.5,268)" display="none"><g ></g><g ></g><g ></g><g ></g></g><image  id="v-4594"></image></g></g><!--z-index:19--><g   id="j_517"  transform="translate(1780,385)" style=""><g  id="v-4601" style="opacity: 1;"><rect  id="v-4602" rx="1" ry="1" stroke-width="2" pointer-events="visiblePainted" fill="#2496ed" stroke="#2087d5" stroke-dasharray="" width="450" height="300"></rect><text  id="v-4603" font-size="33.599999999999994px" xml:space="preserve" y="101.30000000000001" font-weight="bold" text-anchor="middle" pointer-events="visible" font-family="Tahoma, Verdana, Helvetica, Arial" fill="#ffffff" dominant-baseline="hanging" transform="matrix(1,0,0,1,225,0)"><tspan  dy="0">Backend API</tspan></text><text  id="v-4604" font-size="16.799999999999997px" xml:space="preserve" y="142.9" text-anchor="middle" font-family="Tahoma, Verdana, Helvetica, Arial" fill="#ffffff" dominant-baseline="hanging" transform="matrix(1,0,0,1,225,0)" style="display: block;"><tspan  dy="0">[Container: Node.js, Sequelize]</tspan></text><text  id="v-4605" font-size="24px" xml:space="preserve" y="174.7" text-anchor="middle" font-family="Tahoma, Verdana, Helvetica, Arial" fill="#ffffff" dominant-baseline="hanging" transform="matrix(1,0,0,1,225,0)" style="display: block;"><tspan  dy="0">API REST con Express.js</tspan></text><g  id="v-4606" color="#ffffff" transform="matrix(1,0,0,1,210,268)" display="none"><g  transform="translate(5 0)"><svg xmlns="http://www.w3.org/2000/svg" width="20" height="20" fill="currentColor" viewBox="0 0 16 16"><path fill-rule="evenodd" d="M6.5 12a5.5 5.5 0 1 0 0-11 5.5 5.5 0 0 0 0 11zM13 6.5a6.5 6.5 0 1 1-13 0 6.5 6.5 0 0 1 13 0z"></path><path d="M10.344 11.742c.03.04.062.078.098.115l3.85 3.85a1 1 0 0 0 1.415-1.414l-3.85-3.85a1.007 1.007 0 0 0-.115-.1 6.538 6.538 0 0 1-1.398 1.4z"></path><path fill-rule="evenodd" d="M6.5 3a.5.5 0 0 1 .5.5V6h2.5a.5.5 0 0 1 0 1H7v2.5a.5.5 0 0 1-1 0V7H3.5a.5.5 0 0 1 0-1H6V3.5a.5.5 0 0 1 .5-.5z"></path></svg></g><g ></g><g ></g><g ></g></g><image  id="v-4607"></image></g></g><!--z-index:20--><g   id="j_518"  transform="translate(2570,385)" style=""><g  id="v-4611" style="opacity: 1;"><path  d="M 0,30 a 225,30 0,0,0 450 0 a 225,30 0,0,0 -450 0 l 0,240 a 225,30 0,0,0 450 0 l 0,-240" id="v-4612" stroke-width="2" pointer-events="visiblePainted" fill="#2496ed" stroke="#2087d5" stroke-dasharray=""></path><rect  id="v-4613" stroke-width="0" pointer-events="visiblePainted" fill="none" stroke="none" width="450" height="270" x="0" y="30"></rect><text  id="v-4614" font-size="33.599999999999994px" xml:space="preserve" y="116.30000000000001" font-weight="bold" text-anchor="middle" pointer-events="visible" font-family="Tahoma, Verdana, Helvetica, Arial" fill="#ffffff" dominant-baseline="hanging" transform="matrix(1,0,0,1,225,0)"><tspan  dy="0">Base de Datos</tspan></text><text  id="v-4615" font-size="16.799999999999997px" xml:space="preserve" y="157.9" text-anchor="middle" font-family="Tahoma, Verdana, Helvetica, Arial" fill="#ffffff" dominant-baseline="hanging" transform="matrix(1,0,0,1,225,0)" style="display: block;"><tspan  dy="0">[Container: PostgreSQL 16]</tspan></text><text  id="v-4616" font-size="24px" xml:space="preserve" y="189.7" text-anchor="middle" font-family="Tahoma, Verdana, Helvetica, Arial" fill="#ffffff" dominant-baseline="hanging" transform="matrix(1,0,0,1,225,0)" style="display: block;"><tspan  dy="0">Almacenamiento relacional</tspan></text><g  id="v-4617" font-weight="normal" text-anchor="middle" color="#ffffff" transform="matrix(1,0,0,1,222.5,268)" display="none"><g ></g><g ></g><g ></g><g ></g></g><image  id="v-4618"></image></g></g><!--z-index:21--><g   id="j_519"  style="opacity: 1;"><path fill="none" cursor="pointer" stroke="transparent" stroke-linecap="round" joint-selector="wrapper" id="v-4627" stroke-width="10" stroke-linejoin="round" d="M 600 440.41 L 761 364 C 766.9999999999999 361.3333333333333 773.3333333333333 360 780 360 L 990 360"></path><path fill="none" pointer-events="none" joint-selector="line" id="v-4626" stroke="#444444" stroke-width="2" stroke-linejoin="round" stroke-dasharray="8 8" d="M 600 440.41 L 761 364 C 766.9999999999999 361.3333333333333 773.3333333333333 360 780 360 L 990 360" marker-end="url(#v-21252848929)"></path><g id="v-4619" ><g id="v-4620"  label-idx="0" cursor="move" transform="matrix(1,0,0,1,770.212890625,361.0078125)" style="cursor: default;"><rect joint-selector="rect" id="v-4623" fill="#ffffff" rx="3" ry="3" x="-67.32499694824219" y="-16.799999237060547" width="134.64999389648438" height="28.80000114440918" pointer-events="none"  style="display: block;"></rect><text joint-selector="text" id="v-4622" font-size="24px" xml:space="preserve" fill="#444444" text-anchor="middle" pointer-events="none" font-family="Tahoma, Verdana, Helvetica, Arial" font-weight="normal"  style="display: block;"><tspan  dy="0.3em">Usa [HTTPS]</tspan></text></g><g id="v-4621"  label-idx="1" cursor="move" transform="matrix(1,0,0,1,760.212890625,373.0078125)" style="cursor: default;"><rect joint-selector="rect" id="v-4625" fill="#ffffff" rx="3" ry="3" x="0" y="2.842170943040401e-14" width="0" height="0"  display="none"></rect><text joint-selector="text" id="v-4624" fill="#000000" font-size="14" text-anchor="middle" text-vertical-anchor="middle" pointer-events="none"></text></g></g></g><!--z-index:22--><g   id="j_520"  style="opacity: 1;"><path fill="none" cursor="pointer" stroke="transparent" stroke-linecap="round" joint-selector="wrapper" id="v-4636" stroke-width="10" stroke-linejoin="round" d="M 600 629.59 L 761 706 C 766.9999999999999 708.6666666666666 773.3333333333333 710 780 710 L 990 710"></path><path fill="none" pointer-events="none" joint-selector="line" id="v-4635" stroke="#444444" stroke-width="2" stroke-linejoin="round" stroke-dasharray="8 8" d="M 600 629.59 L 761 706 C 766.9999999999999 708.6666666666666 773.3333333333333 710 780 710 L 990 710" marker-end="url(#v-21252848929)"></path><g id="v-4628" ><g id="v-4629"  label-idx="0" cursor="move" transform="matrix(1,0,0,1,770.212890625,708.9921875)" style="cursor: default;"><rect joint-selector="rect" id="v-4632" fill="#ffffff" rx="3" ry="3" x="-19.524999618530273" y="-16.799999237060547" width="39.04999923706055" height="28.80000114440918" pointer-events="none"  style="display: block;"></rect><text joint-selector="text" id="v-4631" font-size="24px" xml:space="preserve" fill="#444444" text-anchor="middle" pointer-events="none" font-family="Tahoma, Verdana, Helvetica, Arial" font-weight="normal"  style="display: block;"><tspan  dy="0.3em">Usa</tspan></text></g><g id="v-4630"  label-idx="1" cursor="move" transform="matrix(1,0,0,1,760.212890625,720.9921875)" style="cursor: default;"><rect joint-selector="rect" id="v-4634" fill="#ffffff" rx="3" ry="3" x="0" y="0" width="0" height="0"  display="none"></rect><text joint-selector="text" id="v-4633" fill="#000000" font-size="14" text-anchor="middle" text-vertical-anchor="middle" pointer-events="none"></text></g></g></g><!--z-index:23--><g   id="j_521"  style="opacity: 1;"><path fill="none" cursor="pointer" stroke="transparent" stroke-linecap="round" joint-selector="wrapper" id="v-4648" stroke-width="10" stroke-linejoin="round" d="M 1440 360 L 1600 360 C 1606.6666666666665 360 1613 361.3333333333333 1619 364 L 1780 435.32"></path><path fill="none" pointer-events="none" joint-selector="line" id="v-4647" stroke="#444444" stroke-width="2" stroke-linejoin="round" stroke-dasharray="8 8" d="M 1440 360 L 1600 360 C 1606.6666666666665 360 1613 361.3333333333333 1619 364 L 1780 435.32" marker-end="url(#v-21252848929)"></path><g id="v-4640" ><g id="v-4641"  label-idx="0" cursor="move" transform="matrix(1,0,0,1,1609.787109375,361.0078125)" style="cursor: default;"><rect joint-selector="rect" id="v-4644" fill="#ffffff" rx="3" ry="3" x="-76.62499237060547" y="-31.200000762939453" width="153.24998474121094" height="57.60000228881836" pointer-events="none"  style="display: block;"></rect><text joint-selector="text" id="v-4643" font-size="24px" xml:space="preserve" fill="#444444" text-anchor="middle" pointer-events="none" font-family="Tahoma, Verdana, Helvetica, Arial" font-weight="normal"  style="display: block;"><tspan  dy="-0.3em">Llama</tspan><tspan dy="1.2em" x="0" >[HTTPS/REST]</tspan></text></g><g id="v-4642"  label-idx="1" cursor="move" transform="matrix(1,0,0,1,1599.787109375,387.4078369140625)" style="cursor: default;"><rect joint-selector="rect" id="v-4646" fill="#ffffff" rx="3" ry="3" x="0" y="2.842170943040401e-14" width="0" height="0"  display="none"></rect><text joint-selector="text" id="v-4645" fill="#000000" font-size="14" text-anchor="middle" text-vertical-anchor="middle" pointer-events="none"></text></g></g></g><!--z-index:24--><g   id="j_522"  style="opacity: 1;"><path fill="none" cursor="pointer" stroke="transparent" stroke-linecap="round" joint-selector="wrapper" id="v-4660" stroke-width="10" stroke-linejoin="round" d="M 1440 710 L 1600 710 C 1606.6666666666665 710 1613 708.6666666666666 1619 706 L 1780 634.68"></path><path fill="none" pointer-events="none" joint-selector="line" id="v-4659" stroke="#444444" stroke-width="2" stroke-linejoin="round" stroke-dasharray="8 8" d="M 1440 710 L 1600 710 C 1606.6666666666665 710 1613 708.6666666666666 1619 706 L 1780 634.68" marker-end="url(#v-21252848929)"></path><g id="v-4652" ><g id="v-4653"  label-idx="0" cursor="move" transform="matrix(1,0,0,1,1609.787109375,708.9921875)" style="cursor: default;"><rect joint-selector="rect" id="v-4656" fill="#ffffff" rx="3" ry="3" x="-76.62499237060547" y="-31.200000762939453" width="153.24998474121094" height="57.60000228881836" pointer-events="none"  style="display: block;"></rect><text joint-selector="text" id="v-4655" font-size="24px" xml:space="preserve" fill="#444444" text-anchor="middle" pointer-events="none" font-family="Tahoma, Verdana, Helvetica, Arial" font-weight="normal"  style="display: block;"><tspan  dy="-0.3em">Llama</tspan><tspan dy="1.2em" x="0" >[HTTPS/REST]</tspan></text></g><g id="v-4654"  label-idx="1" cursor="move" transform="matrix(1,0,0,1,1599.787109375,735.3921508789062)" style="cursor: default;"><rect joint-selector="rect" id="v-4658" fill="#ffffff" rx="3" ry="3" x="0" y="1.1368683772161603e-13" width="0" height="0"  display="none"></rect><text joint-selector="text" id="v-4657" fill="#000000" font-size="14" text-anchor="middle" text-vertical-anchor="middle" pointer-events="none"></text></g></g></g><!--z-index:25--><g   id="j_523"  style="opacity: 1;"><path fill="none" cursor="pointer" stroke="transparent" stroke-linecap="round" joint-selector="wrapper" id="v-4672" stroke-width="10" stroke-linejoin="round" d="M 2230 535 L 2570 535"></path><path fill="none" pointer-events="none" joint-selector="line" id="v-4671" stroke="#444444" stroke-width="2" stroke-linejoin="round" stroke-dasharray="8 8" d="M 2230 535 L 2570 535" marker-end="url(#v-21252848929)"></path><g id="v-4664" ><g id="v-4665"  label-idx="0" cursor="move" transform="matrix(1,0,0,1,2400,535)" style="cursor: default;"><rect joint-selector="rect" id="v-4668" fill="#ffffff" rx="3" ry="3" x="-60.849998474121094" y="-31.200000762939453" width="121.69999694824219" height="57.60000228881836" pointer-events="none"  style="display: block;"></rect><text joint-selector="text" id="v-4667" font-size="24px" xml:space="preserve" fill="#444444" text-anchor="middle" pointer-events="none" font-family="Tahoma, Verdana, Helvetica, Arial" font-weight="normal"  style="display: block;"><tspan  dy="-0.3em">Lee/Escribe</tspan><tspan dy="1.2em" x="0" >[SQL/TCP]</tspan></text></g><g id="v-4666"  label-idx="1" cursor="move" transform="matrix(1,0,0,1,2390,561.4000244140625)" style="cursor: default;"><rect joint-selector="rect" id="v-4670" fill="#ffffff" rx="3" ry="3" x="0" y="0" width="0" height="0"  display="none"></rect><text joint-selector="text" id="v-4669" fill="#000000" font-size="14" text-anchor="middle" text-vertical-anchor="middle" pointer-events="none"></text></g></g></g><!--z-index:26--><!--z-index:27--><!--z-index:28--><!--z-index:29--><!--z-index:30--><!--z-index:31--><!--z-index:32--><!--z-index:33--><!--z-index:34--><!--z-index:35--><!--z-index:36--><!--z-index:37--><!--z-index:38--><!--z-index:39--><!--z-index:40--><!--z-index:41--><!--z-index:42--><!--z-index:43--><!--z-index:44--><!--z-index:45--><!--z-index:46--><!--z-index:47--><!--z-index:48--><!--z-index:49--><!--z-index:50--><!--z-index:51--><!--z-index:52--><!--z-index:53--><!--z-index:54--><!--z-index:55--><!--z-index:56--><!--z-index:57--><!--z-index:58--><!--z-index:59--><!--z-index:60--><!--z-index:61--><!--z-index:62--><!--z-index:63--><!--z-index:64--><!--z-index:65--><!--z-index:66--><!--z-index:67--><!--z-index:68--><!--z-index:69--><!--z-index:70--><!--z-index:71--><!--z-index:72--><!--z-index:73--><!--z-index:74--><!--z-index:75--><!--z-index:76--><!--z-index:77--><!--z-index:78--></g><g  style="user-select: none;"></g><g ></g><g  display="none"></g></g></svg>